<svg width="165" height="146" viewBox="0 0 165 146" fill="none" xmlns="http://www.w3.org/2000/svg">
<path d="M95.2877 97.046C95.292 97.0321 95.2932 97.0176 95.2912 97.0033C95.2892 96.989 95.284 96.9752 95.276 96.9626C95.268 96.9501 95.2572 96.939 95.2443 96.9302C95.2315 96.9213 95.2168 96.9148 95.2011 96.911C95.1854 96.9071 95.169 96.9061 95.1528 96.9078C95.1366 96.9096 95.121 96.9142 95.1068 96.9213C95.0926 96.9284 95.0802 96.9379 95.0702 96.9493C95.0602 96.9607 95.0528 96.9737 95.0484 96.9876C94.6018 98.5811 94.7434 100.259 95.4527 101.776C95.5022 101.871 95.6672 101.776 95.6424 101.703C95.0878 100.201 94.9659 98.6004 95.2877 97.046ZM100.84 96.827C100.947 96.9146 101.137 96.827 101.054 96.681C100.614 96.1826 100.018 95.8097 99.3408 95.6085C98.6632 95.4073 97.9337 95.3868 97.243 95.5495C97.144 95.5495 97.2017 95.732 97.3007 95.7174C97.947 95.6539 98.6012 95.7208 99.2142 95.9129C99.8272 96.1051 100.383 96.4176 100.84 96.827Z" fill="white"/>
<path d="M96.7391 94.7611C96.3805 94.4545 95.9154 94.2642 95.4191 94.221C95.5285 92.7009 95.8784 91.2019 96.4586 89.7679C96.5246 89.6511 96.2853 89.5562 96.2194 89.673C95.5089 91.0961 95.1462 92.636 95.1551 94.1917C95.1551 94.1917 93.8928 94.2721 93.5051 94.6882C93.3492 94.8755 93.2732 95.1057 93.2906 95.3379C92.1571 94.8361 90.8917 94.6142 89.6276 94.6954C89.5926 94.6954 89.559 94.7078 89.5343 94.7297C89.5095 94.7516 89.4956 94.7813 89.4956 94.8122C89.4956 94.8432 89.5095 94.8729 89.5343 94.8948C89.559 94.9167 89.5926 94.929 89.6276 94.929C90.8984 94.9505 92.1539 95.1781 93.3318 95.6007C93.4222 95.9126 93.6112 96.1953 93.8767 96.4156C94.1421 96.636 94.4731 96.7847 94.8308 96.8445C95.1884 96.9042 95.5579 96.8726 95.8959 96.7531C96.2339 96.6336 96.5264 96.4314 96.7391 96.1701C96.7391 96.1701 97.3496 95.3086 96.7391 94.7611ZM93.7526 94.8998C93.9258 94.5421 94.5116 94.4545 94.9488 94.4473C95.4683 94.4282 95.9808 94.5588 96.4091 94.8195C96.5989 94.9509 96.8298 95.1262 96.7886 95.3379C96.3513 97.5206 92.9936 96.5204 93.7526 94.8998ZM22.2746 96.7394C22.0986 97.8285 22.2939 98.9393 22.8356 99.9295C22.9016 100.017 23.0749 99.9295 23.0336 99.8565C22.5841 98.8662 22.417 97.7932 22.5469 96.7321C22.6211 96.7321 24.5186 96.6153 24.5104 95.0604C25.4523 94.8333 26.4416 94.8058 27.3979 94.9801C27.4246 94.9854 27.4527 94.9814 27.4762 94.9689C27.4998 94.9564 27.517 94.9365 27.5244 94.9131C27.5318 94.8897 27.5288 94.8647 27.516 94.8433C27.5032 94.8218 27.4816 94.8055 27.4556 94.7976C26.4826 94.5235 25.4337 94.5466 24.4774 94.8633C24.4031 94.6881 23.8009 93.9508 22.1591 94.1333C21.8176 93.5432 21.7298 92.8635 21.9118 92.2205C22.0939 91.5774 22.5335 91.0146 23.1491 90.6367C23.2729 90.549 23.1491 90.3811 23.0336 90.4541C22.3448 90.8305 21.8421 91.4233 21.6264 92.1137C21.4107 92.8041 21.4978 93.5412 21.8704 94.1771C20.5669 94.4545 20.4514 95.0239 20.3854 95.221C19.2754 95.1618 18.1645 95.324 17.1349 95.6955C17.1097 95.7091 17.0916 95.7309 17.0847 95.7563C17.0777 95.7816 17.0824 95.8083 17.0977 95.8306C17.113 95.8529 17.1377 95.8688 17.1664 95.875C17.195 95.8812 17.2252 95.877 17.2504 95.8635C18.2575 95.6231 19.2931 95.4883 20.3359 95.4619C20.3605 95.6615 20.4313 95.8544 20.544 96.0286C20.6566 96.2028 20.8087 96.3546 20.9906 96.4745C21.1726 96.5944 21.3805 96.6798 21.6014 96.7254C21.8223 96.771 22.0515 96.7758 22.2746 96.7394ZM20.8556 94.9801C21.6806 94.0603 24.2876 94.126 24.2876 95.148C24.2051 96.4401 22.1426 96.7614 21.1031 96.1919C20.8916 96.0591 20.7443 95.8606 20.6908 95.636C20.6373 95.4114 20.6814 95.1772 20.8144 94.9801H20.8556ZM68.7634 32.3753C68.761 32.3563 68.7539 32.3378 68.7426 32.3214C68.7313 32.305 68.7161 32.291 68.6981 32.2803C68.68 32.2697 68.6595 32.2627 68.6381 32.2598C68.6166 32.2569 68.5947 32.2582 68.5738 32.2636C68.553 32.2691 68.5338 32.2785 68.5175 32.2912C68.5012 32.3039 68.4883 32.3196 68.4796 32.3372C68.4709 32.3548 68.4667 32.3739 68.4673 32.3931C68.4678 32.4123 68.4732 32.4312 68.4829 32.4483C68.5324 32.5797 68.7963 33.2294 68.8211 33.2732C68.8404 33.2941 68.8669 33.3088 68.8965 33.3152C68.9262 33.3215 68.9573 33.3192 68.9853 33.3084C69.0133 33.2977 69.0366 33.2792 69.0516 33.2557C69.0666 33.2323 69.0726 33.2051 69.0686 33.1783C69.0604 33.1345 68.8211 32.5067 68.7634 32.3753ZM64.8034 33.5798C64.7958 33.5529 64.7783 33.5291 64.7536 33.512C64.729 33.4949 64.6986 33.4856 64.6672 33.4856C64.6359 33.4856 64.6055 33.4949 64.5808 33.512C64.5561 33.5291 64.5386 33.5529 64.5311 33.5798C64.4938 33.7499 64.4958 33.9249 64.5369 34.0942C64.5781 34.2636 64.6575 34.4238 64.7704 34.5653C64.7875 34.5753 64.8072 34.5813 64.8277 34.5829C64.8481 34.5844 64.8687 34.5814 64.8875 34.5742C64.9063 34.5669 64.9228 34.5557 64.9355 34.5414C64.9482 34.5271 64.9566 34.5102 64.9601 34.4923C64.8535 34.1975 64.8006 33.8894 64.8034 33.5798ZM40.6556 61.3198C42.8419 61.5096 45.0281 61.7213 47.2144 61.9111C47.3216 61.9111 47.3794 61.8162 47.3629 61.7432C45.5314 54.1001 45.9439 52.9832 45.5561 52.9832C43.1943 53.1738 40.8136 53.0483 38.4941 52.6109C38.4712 52.6047 38.4467 52.6041 38.4235 52.6092C38.4002 52.6143 38.3789 52.625 38.3619 52.64C38.3449 52.655 38.3329 52.6738 38.3271 52.6944C38.3214 52.715 38.322 52.7367 38.3291 52.7569C39.2614 55.4798 40.4906 61.276 40.6556 61.3198ZM38.6591 52.8737C40.8852 53.2831 43.1665 53.4061 45.4324 53.2387C45.8366 56.0419 46.3811 58.8232 47.0246 61.5972L40.6969 61.0059C40.2245 58.2578 39.5438 55.541 38.6591 52.8737ZM53.8309 58.3998C53.9711 58.3998 53.9299 58.2027 53.8309 58.1954C53.0884 58.1954 50.0771 58.1297 49.3181 58.0348C49.1779 58.0348 49.1119 58.21 49.2604 58.2319C50.7757 58.403 52.3047 58.4592 53.8309 58.3998ZM48.7489 55.8813C48.6004 55.8813 48.6086 56.0711 48.7489 56.0857C50.5277 56.201 52.3122 56.2327 54.0949 56.1806C54.2351 56.1806 54.1856 55.9835 54.0949 55.9762C53.6246 55.9397 49.6316 55.9397 48.7489 55.8813ZM48.5591 54.0782C50.2443 54.2676 51.9426 54.3506 53.6411 54.3264C53.6695 54.32 53.6947 54.3054 53.7126 54.2849C53.7306 54.2644 53.7404 54.2392 53.7404 54.2133C53.7404 54.1874 53.7306 54.1622 53.7126 54.1417C53.6947 54.1212 53.6695 54.1066 53.6411 54.1001C52.8161 54.1001 49.0046 53.8957 48.5921 53.8884C48.578 53.8865 48.5636 53.8871 48.5498 53.8901C48.536 53.8931 48.5229 53.8985 48.5114 53.9059C48.4999 53.9134 48.4902 53.9228 48.4828 53.9335C48.4754 53.9443 48.4705 53.9563 48.4684 53.9687C48.4662 53.9812 48.4668 53.9939 48.4702 54.0062C48.4736 54.0184 48.4797 54.03 48.4881 54.0401C48.4965 54.0503 48.5071 54.0589 48.5193 54.0654C48.5315 54.072 48.545 54.0763 48.5591 54.0782ZM56.2976 59.0787C58.541 59.1689 60.789 59.0761 63.0131 58.8013C63.0556 58.7981 63.0955 58.7816 63.1256 58.7549C63.1558 58.7282 63.1744 58.693 63.1781 58.6553C62.9719 53.9614 63.5823 53.3336 63.0709 53.3993C60.8268 53.6913 58.5484 53.7134 56.2976 53.465C56.2398 53.465 56.0666 53.538 56.0666 53.5891C56.0089 55.3703 56.0666 57.1442 56.1244 58.9254C56.1244 58.9661 56.1426 59.0051 56.1751 59.0338C56.2076 59.0626 56.2517 59.0787 56.2976 59.0787ZM62.9389 53.7132C62.8068 55.314 62.7738 56.92 62.8399 58.5239C60.7258 58.7659 58.5927 58.8514 56.4626 58.7794C56.4049 57.1077 56.3059 55.436 56.2729 53.7643C58.4934 53.8861 60.721 53.869 62.9389 53.7132ZM50.0441 62.1885C51.9004 62.2907 60.2164 62.2396 61.1156 62.1301C61.2311 62.1301 61.1981 61.9549 61.1156 61.9549C60.1999 61.9184 51.9169 62.0425 50.0689 62.0279C49.9286 62.0498 49.9286 62.1812 50.0441 62.1885ZM60.3648 64.78C60.3933 64.78 60.4206 64.7701 60.4407 64.7523C60.4608 64.7345 60.4721 64.7103 60.4721 64.6851C60.4721 64.66 60.4608 64.6358 60.4407 64.618C60.4206 64.6002 60.3933 64.5902 60.3648 64.5902C55.2251 64.5902 42.0664 64.0354 40.6308 63.9259C40.5154 63.9259 40.5154 64.0719 40.6308 64.0865C45.7458 64.5464 58.9211 64.8238 60.3648 64.78ZM58.0631 68.3643C58.2116 68.3643 58.2529 68.1526 58.1044 68.1307C52.6509 67.5319 47.165 67.1932 41.6703 67.116C41.6419 67.116 41.6146 67.126 41.5945 67.1438C41.5744 67.1616 41.5631 67.1858 41.5631 67.2109C41.5631 67.2361 41.5744 67.2603 41.5945 67.278C41.6146 67.2958 41.6419 67.3058 41.6703 67.3058C45.9356 67.4518 48.1961 67.5394 58.0631 68.3643ZM56.3059 71.4522C56.3321 71.4522 56.3573 71.443 56.3759 71.4266C56.3944 71.4102 56.4049 71.3879 56.4049 71.3646C56.4049 71.3414 56.3944 71.3191 56.3759 71.3027C56.3573 71.2863 56.3321 71.277 56.3059 71.277C55.3819 71.1894 43.0316 70.9485 41.9756 70.9412C41.8601 70.9412 41.8601 71.1018 41.9756 71.1018C45.6964 71.2405 55.2746 71.5398 56.3059 71.4522ZM53.7566 75.2336C53.9299 75.2336 53.9216 75.0146 53.7566 74.9927C51.9086 74.781 44.4589 74.2627 42.6026 74.2189C42.5036 74.2189 42.4788 74.3649 42.6026 74.3722C44.4093 74.5985 51.8756 75.1898 53.7566 75.2336ZM53.1791 78.4456C53.2035 78.4397 53.225 78.4269 53.2404 78.4091C53.2557 78.3913 53.264 78.3695 53.264 78.3471C53.264 78.3247 53.2557 78.3029 53.2404 78.2851C53.225 78.2673 53.2035 78.2545 53.1791 78.2485C52.4696 78.066 44.4754 77.4309 44.1041 77.4674C44.0866 77.4674 44.0698 77.4736 44.0574 77.4846C44.0451 77.4955 44.0381 77.5104 44.0381 77.5258C44.0381 77.5413 44.0451 77.5562 44.0574 77.5671C44.0698 77.5781 44.0866 77.5842 44.1041 77.5842C44.4424 77.6864 52.4201 78.4967 53.1791 78.4456ZM54.5651 81.5262C54.1774 81.424 46.1749 80.7962 44.4754 80.7013C44.3681 80.7013 44.3764 80.84 44.4754 80.8473C46.1254 81.0298 54.0949 81.7744 54.5321 81.7453C54.5649 81.7491 54.5981 81.7413 54.6244 81.7235C54.6507 81.7057 54.668 81.6794 54.6723 81.6503C54.6767 81.6213 54.6679 81.5919 54.6478 81.5686C54.6277 81.5454 54.5979 81.5301 54.5651 81.5262ZM56.0006 73.6276C56.1821 76.3578 56.3224 79.1026 56.5699 81.8328C56.5533 81.8517 56.5429 81.8741 56.5397 81.8978C56.5365 81.9215 56.5406 81.9454 56.5516 81.9672C56.5626 81.9889 56.5801 82.0076 56.6022 82.0213C56.6244 82.0349 56.6502 82.0429 56.6771 82.0445C58.7231 82.2074 60.7779 82.2683 62.8316 82.227C62.8518 82.228 62.872 82.2254 62.891 82.2192C62.9099 82.2131 62.9273 82.2035 62.942 82.1912C62.9567 82.1789 62.9683 82.1641 62.9763 82.1477C62.9843 82.1312 62.9884 82.1135 62.9883 82.0956L62.5181 73.8612C62.516 73.8238 62.4977 73.7885 62.467 73.7627C62.4362 73.7369 62.3955 73.7225 62.3531 73.7225L56.1574 73.4889C56.1365 73.4879 56.1155 73.4907 56.096 73.4973C56.0764 73.5039 56.0587 73.5141 56.0439 73.5272C56.0291 73.5403 56.0175 73.556 56.0101 73.5733C56.0026 73.5906 55.9994 73.6092 56.0006 73.6276ZM62.2046 73.9926C62.3614 76.6498 62.5098 79.307 62.6666 81.9642C60.6982 82.0007 58.729 81.9422 56.7678 81.789C56.6688 79.1172 56.4626 76.4454 56.3223 73.759L62.2046 73.9926ZM23.1409 64.5756C21.4086 64.647 19.6944 64.9194 18.0424 65.3859C17.6546 65.4954 16.3181 65.7144 16.2191 66.1743C16.1201 66.6342 16.7719 66.6196 17.1184 66.5977C19.1795 66.471 21.2114 66.0952 23.1574 65.4808C23.347 65.4336 23.5219 65.3487 23.6689 65.2326C23.7419 65.1726 23.7911 65.0932 23.8089 65.0063C23.8267 64.9195 23.8123 64.8298 23.7679 64.7508C23.6441 64.5829 23.3719 64.5683 23.1409 64.5756Z" fill="white"/>
<path d="M152.443 42.2012C150.356 37.3832 137.643 6.6867 136.438 3.8324C136.362 3.74062 136.25 3.67594 136.125 3.6499C133.757 3.6499 119.245 3.9492 117.917 4.0368C117.752 4.0368 105.286 39.8871 104.56 42.2085C104.56 42.2815 104.692 44.07 104.75 44.2233C104.808 44.3766 104.989 44.3474 105.014 44.2233C105.039 44.0992 104.907 42.5881 104.899 42.5151C105.451 42.5662 106.012 42.61 106.549 42.6465C106.394 43.4019 106.454 44.1794 106.722 44.9095C106.736 44.9323 106.759 44.9502 106.786 44.9604C106.813 44.9707 106.843 44.9726 106.871 44.9658C106.9 44.9591 106.925 44.9442 106.943 44.9234C106.96 44.9026 106.97 44.8772 106.969 44.8511C106.767 44.1358 106.705 43.3949 106.788 42.6611C107.671 42.7341 108.562 42.7925 109.453 42.8509C109.342 43.7178 109.463 44.5956 109.807 45.4132C109.821 45.4344 109.843 45.4509 109.868 45.4602C109.894 45.4694 109.922 45.4707 109.949 45.464C109.975 45.4573 109.999 45.4429 110.015 45.4231C110.031 45.4033 110.039 45.3793 110.038 45.3548C109.795 44.5432 109.687 43.7047 109.717 42.8655C110.641 42.9239 111.573 42.975 112.505 43.0188V45.3183C112.515 45.3441 112.534 45.3664 112.559 45.3822C112.584 45.398 112.615 45.4065 112.645 45.4065C112.676 45.4065 112.706 45.398 112.731 45.3822C112.757 45.3664 112.775 45.3441 112.786 45.3183V43.0334L115.401 43.1502C115.401 43.5079 115.401 45.2234 115.459 45.3402C115.468 45.3626 115.485 45.3818 115.507 45.3955C115.529 45.4091 115.555 45.4164 115.582 45.4164C115.609 45.4164 115.636 45.4091 115.658 45.3955C115.68 45.3818 115.697 45.3626 115.706 45.3402C115.728 44.6097 115.706 43.8787 115.64 43.1502C116.671 43.1867 117.694 43.2232 118.726 43.2451C118.743 43.9779 118.809 44.7091 118.924 45.4351C118.924 45.5592 119.163 45.5227 119.171 45.4351C119.162 44.7029 119.107 43.9718 119.006 43.2451C120.103 43.2451 121.201 43.2889 122.306 43.2962C122.306 43.2962 122.207 45.0263 122.232 45.3548C122.232 45.4716 122.455 45.5154 122.471 45.3548C122.529 45.0263 122.595 43.2889 122.578 43.267H125.284V45.1212C125.294 45.1436 125.311 45.1628 125.333 45.1764C125.355 45.1901 125.381 45.1974 125.408 45.1974C125.435 45.1974 125.461 45.1901 125.483 45.1764C125.506 45.1628 125.522 45.1436 125.532 45.1212C125.569 44.5036 125.569 43.8846 125.532 43.267H125.854C125.738 48.45 125.474 57.9984 125.474 58.8963C125.103 58.8963 103.636 58.8452 101.995 58.8963C99.9568 54.4579 96.5743 49.764 92.0946 47.2163C87.9582 44.9598 83.1844 43.7855 78.3253 43.8291C78.3253 43.8291 76.9641 40.3835 76.8238 39.9163C77.2036 38.7078 77.4386 37.4672 77.5251 36.2152C77.7851 33.8451 77.898 31.4642 77.8633 29.0831C77.8633 26.8931 77.9211 25.0608 75.3883 24.0753C75.3009 23.9383 75.2549 23.7837 75.2549 23.6264C75.2549 23.469 75.3009 23.3144 75.3883 23.1774C74.7567 23.2023 74.143 23.3707 73.6063 23.6665C73.4812 23.1406 73.1768 22.6613 72.7343 22.2932C72.2917 21.9251 71.7323 21.6859 71.1313 21.6079C71.3528 21.7262 71.5307 21.8989 71.6435 22.1049C71.7563 22.3109 71.799 22.5415 71.7666 22.7686C67.1548 20.2866 65.9916 25.2214 63.7228 24.9586C63.1768 24.8309 62.7089 24.5191 62.4194 24.0899C62.2057 24.4031 62.0997 24.7645 62.1144 25.1301C62.129 25.4956 62.2637 25.8495 62.5019 26.1485C62.2631 26.0908 62.04 25.9911 61.8458 25.8553C61.6516 25.7196 61.4904 25.5505 61.3718 25.3583C61.2531 25.1661 61.1796 24.9547 61.1554 24.7368C61.1313 24.5188 61.1571 24.2988 61.2313 24.0899C60.6198 24.3466 60.1144 24.7661 59.7859 25.2898C59.4575 25.8135 59.3225 26.4149 59.3998 27.0099C59.4888 27.4767 59.701 27.9184 60.0193 28.2989C60.3375 28.6795 60.7528 28.9882 61.2313 29.1999C60.6461 29.3094 60.0363 29.2426 59.4989 29.0101C60.049 29.8164 60.8841 30.4398 61.8749 30.784C61.9708 32.7377 62.4106 34.6662 63.1784 36.4999C62.7775 37.6237 62.7037 38.8189 62.9638 39.9747C63.5248 43.8656 67.6498 45.3694 71.7748 44.1138C71.4696 44.7343 70.6611 44.7781 69.9599 44.9168C68.9655 45.1091 67.9849 45.3528 67.0228 45.6468C65.1147 46.3268 63.3126 47.2198 61.6603 48.304C45.7048 48.6763 37.6611 48.2383 35.3676 48.085C37.0753 47.0411 38.9398 45.2964 38.3128 43.5371C37.9852 42.6846 37.4785 41.8946 36.8196 41.2084C33.9898 38.1497 29.3203 37.7409 25.5088 36.3685C25.0963 36.2152 21.0868 34.4559 20.6413 32.9448C20.5654 32.7304 20.5658 32.5005 20.6426 32.2864C20.7193 32.0722 20.8687 31.8841 21.0703 31.7476C21.1941 31.6819 21.1611 31.4702 20.9961 31.4848C20.1246 31.558 19.2961 31.8543 18.6118 32.3375C17.9276 32.8207 17.4173 33.4698 17.1434 34.2055C16.8694 34.9412 16.8437 35.7316 17.0693 36.4801C17.295 37.2285 17.7622 37.9026 18.4138 38.4198C19.7008 39.5148 21.4086 40.055 22.9101 40.858C24.4116 41.661 25.9131 42.8436 25.8388 44.508C25.7646 46.1724 24.1311 47.5594 22.4728 48.2529C20.6578 48.9829 18.6448 49.2676 16.7886 49.9319C13.3566 51.1656 12.4078 53.5819 12.9193 55.1441C13.1915 55.8453 13.7468 56.4328 14.4786 56.7939C16.1286 57.6772 18.5211 57.5239 19.7751 58.9839C20.0903 59.308 20.2657 59.7203 20.2703 60.1479C20.2748 60.5755 20.1081 60.9907 19.7998 61.3199C19.2058 61.9769 16.7721 63.2836 16.4998 63.5099C16.4091 63.6048 16.5576 63.7435 16.6566 63.6486C17.807 63.1626 19.0487 62.8681 20.3196 62.7799C22.3326 62.4806 27.9096 60.6848 28.8666 59.1737C29.0542 58.9167 29.1196 58.6047 29.0485 58.3053C28.9774 58.0059 28.7757 57.7435 28.4871 57.575C28.1076 57.3341 26.6473 57.4655 25.9461 56.5384C24.5766 54.7426 26.3586 52.7132 28.0003 51.6328C29.4182 50.7895 30.9304 50.0777 32.5131 49.5085C34.2951 53.8885 37.7766 64.5538 38.0241 65.3933C37.4136 65.4663 32.7193 66.0649 32.0593 66.1233C31.3993 66.1817 28.8253 65.5977 28.3881 65.8605C27.4232 65.4505 26.3295 65.3424 25.2861 65.5539C25.0789 64.8904 24.8027 64.2452 24.4611 63.6267C19.1646 63.6267 15.9718 65.1451 14.6271 66.0649C14.5776 66.0649 14.6271 66.2255 14.6271 66.2474C15.0973 67.8461 17.3661 75.0074 17.6878 75.8031C17.6878 75.8469 23.2731 77.4821 27.5878 73.9562C27.5878 73.9562 27.3898 72.8539 27.3568 72.3429C28.0834 72.2819 28.7636 71.9997 29.2812 71.5444C29.7987 71.089 30.1217 70.4889 30.1948 69.8463C33.4061 70.1331 36.5832 70.6656 39.6906 71.4377C40.1444 73.197 41.7614 80.7379 42.1656 82.7308C41.3553 82.7323 40.5603 82.9264 39.8638 83.2929C39.7731 83.344 19.4451 84.1908 17.5888 85.0303C15.978 85.6568 14.6548 86.7479 13.8351 88.1255C13.1296 89.5547 12.873 91.1259 13.0926 92.6734C13.5381 96.3234 15.9718 99.4624 17.9353 102.609C19.4946 105.12 19.1646 109.712 19.2471 110.748C17.3991 109.88 12.7956 110.376 12.7708 110.391C12.6513 110.487 12.5786 110.621 12.5678 110.763C12.557 110.906 12.6091 111.047 12.7131 111.157C14.6921 113.401 17.0132 115.391 19.6101 117.07C19.7338 120.173 19.6843 128.443 19.6101 129.48C19.6101 129.962 19.3543 131.801 19.4038 132.239C19.4312 132.588 19.5574 132.924 19.7709 133.218C19.9843 133.511 20.2781 133.752 20.6248 133.918C21.7881 134.429 21.7716 134.254 45.5728 133.824C45.5728 134.181 45.6224 134.554 45.6389 134.882H47.5941V137.678C47.5363 137.634 47.0331 137.422 46.8433 137.488C45.8325 137.842 44.8604 138.277 43.9393 138.788C41.2251 140.248 40.8703 141.474 40.8703 141.496C40.8507 141.634 40.8909 141.773 40.9828 141.885C41.0747 141.998 41.2114 142.075 41.3653 142.102C43.8403 142.525 52.1976 142.233 53.0226 142.102C53.5011 142.014 53.5506 141.62 53.5258 141.197C53.5183 141.075 53.4643 140.96 53.3728 140.87C53.2813 140.78 53.1578 140.72 53.0226 140.7C53.5011 139.802 52.8329 138.707 52.1976 137.904C51.5624 137.101 51.8264 135.24 51.8346 135.079C52.6101 135.13 53.3856 135.181 54.1694 135.247C54.2109 134.703 54.3048 134.163 54.4498 133.634C59.4207 133.558 64.3809 133.199 69.2998 132.561C69.2998 132.561 69.9103 129.641 70.1248 128.181C71.3953 128.181 81.4273 128.181 85.1728 128.122C85.2801 128.969 85.9483 133.962 85.9978 133.962C89.6031 135.313 94.2478 135.627 98.1336 135.524C98.2903 135.524 106.26 135.094 111.086 134.371C113.372 134.067 115.68 133.916 117.991 133.918C116.77 134.605 112.216 136.955 111.243 137.532C111.21 137.575 111.193 137.626 111.193 137.678C111.193 137.73 111.21 137.781 111.243 137.824C115.714 140.058 123.057 139.846 128.7 139.846C131.051 139.846 134.269 139.985 138.047 138.525C138.872 138.211 140.679 137.43 140.316 136.692C140.258 136.605 132.008 132.626 130.465 131.801C129.706 126.429 129.178 121.173 130.408 114.8C130.762 112.96 132.404 107.23 136.678 99.4697C139.012 95.2576 138.468 90.4469 136.092 87.3809C135.683 86.8239 135.173 86.3306 134.582 85.9209C133.719 85.5429 132.79 85.2961 131.835 85.1909C133.378 79.3509 134.599 72.9196 134.483 66.9409C134.57 65.1343 134.127 63.3385 133.196 61.7287C132.239 60.2687 130.449 59.0496 128.469 59.1883C128.518 54.7572 128.584 44.4569 128.584 43.2597H129.013V45.2818C129.023 45.3059 129.041 45.3267 129.065 45.3414C129.088 45.3561 129.116 45.364 129.145 45.364C129.174 45.364 129.202 45.3561 129.226 45.3414C129.25 45.3267 129.268 45.3059 129.277 45.2818C129.319 45.1066 129.327 43.5663 129.277 43.2524H131.604C131.612 43.8699 131.659 44.4865 131.744 45.0993C131.751 45.1209 131.765 45.1399 131.785 45.1535C131.806 45.1671 131.83 45.1744 131.855 45.1744C131.881 45.1744 131.905 45.1671 131.925 45.1535C131.946 45.1399 131.96 45.1209 131.967 45.0993C131.955 44.4903 131.895 43.8829 131.785 43.2816L134.26 43.2159C134.168 43.8782 134.303 44.5496 134.648 45.1431C134.706 45.2088 134.854 45.2015 134.846 45.0993C134.628 44.4908 134.531 43.8537 134.557 43.2159L137.775 43.0699C137.775 43.0699 137.717 44.6467 137.775 44.8C137.785 44.8258 137.804 44.8481 137.829 44.8639C137.854 44.8797 137.884 44.8882 137.915 44.8882C137.946 44.8882 137.976 44.8797 138.001 44.8639C138.026 44.8481 138.045 44.8258 138.055 44.8V43.0626L140.456 42.975C140.241 43.6862 140.308 44.4411 140.646 45.1139C140.712 45.238 140.926 45.1139 140.885 45.0263C140.642 44.3597 140.585 43.6507 140.72 42.9604L143.682 42.829C143.64 43.4806 143.64 44.1338 143.682 44.7854C143.689 44.807 143.703 44.826 143.723 44.8396C143.743 44.8532 143.768 44.8605 143.793 44.8605C143.819 44.8605 143.843 44.8532 143.863 44.8396C143.883 44.826 143.898 44.807 143.905 44.7854C143.946 44.1289 143.946 43.4709 143.905 42.8144L146.437 42.6976C146.437 42.9823 146.437 44.3474 146.52 44.4934C146.527 44.515 146.541 44.534 146.561 44.5476C146.581 44.5612 146.606 44.5685 146.631 44.5685C146.657 44.5685 146.681 44.5612 146.701 44.5476C146.721 44.534 146.736 44.515 146.743 44.4934C146.752 43.8892 146.727 43.285 146.668 42.683L149.284 42.5443C149.284 42.8217 149.424 44.0043 149.498 44.2744C149.505 44.2995 149.522 44.3218 149.545 44.3377C149.568 44.3536 149.597 44.3622 149.626 44.3622C149.655 44.3622 149.684 44.3536 149.707 44.3377C149.73 44.3218 149.747 44.2995 149.754 44.2744C149.754 43.9751 149.572 42.8144 149.523 42.5662L152.138 42.4202C151.853 42.9193 151.788 43.4945 151.957 44.0335C151.957 44.1065 152.188 44.0919 152.163 44.0335C152.061 43.4115 152.158 42.7768 152.443 42.2012ZM112.786 42.8071C110.146 42.683 107.514 42.5151 104.882 42.318C104.981 42.172 118.082 4.1171 118.082 4.1901H121.539C120.516 9.2125 113.512 40.0039 112.786 42.8071ZM113.215 42.8071C114.427 37.8139 121.803 4.1171 121.795 4.1171H125.722C125.482 6.6867 123.89 40.2229 123.75 43.0699C120.92 43.0699 113.924 42.8582 113.215 42.829V42.8071ZM125.59 59.2321V61.0133C124.755 62.3618 124.014 63.7538 123.37 65.1816C121.027 70.1675 119.831 77.942 121.184 85.169C97.8696 85.2347 99.6764 85.2201 99.6846 85.169C99.7506 84.439 99.5608 80.6138 99.5526 80.5992C100.677 79.6419 101.57 78.4919 102.176 77.2193C104.156 73.0437 102.894 68.4593 101.656 64.2034C102.316 63.9406 102.968 63.6559 103.603 63.342C103.702 63.2909 103.702 63.0646 103.686 63.0135C103.291 61.7758 102.823 60.5574 102.283 59.3635C105.253 59.2905 125.565 59.2832 125.59 59.254V59.2321ZM125.664 61.5024L125.218 85.1617H121.621C120.636 80.2893 120.751 75.2925 121.96 70.4595C122.875 66.5029 123.75 64.8823 125.664 61.5243V61.5024ZM84.2488 117.88C77.6488 117.88 60.1836 117.727 58.0056 117.705C58.8306 113.259 60.3816 102.616 60.2413 101.645C61.8913 101.645 70.2898 101.558 72.8473 101.565C76.9071 101.971 81.0078 101.934 85.0573 101.455C84.2653 104.85 83.5971 107.763 84.2488 117.902V117.88ZM68.1448 81.2051C67.8148 79.7451 66.7918 74.8322 66.6928 73.9051C67.0625 73.8799 67.4338 73.9284 67.7793 74.0472C68.1249 74.166 68.4359 74.3519 68.6893 74.5913C69.5968 75.1753 79.1916 80.2561 80.1403 80.7087C82.0756 81.6344 84.1202 82.3689 86.2371 82.8987C91.3109 84.1543 95.3863 83.9718 99.2803 80.8255C99.2803 81.081 99.3876 85.096 99.4948 85.2055H97.0198C95.5104 85.3047 94.0463 85.7067 92.7384 86.3808C91.4306 87.0549 90.3132 87.9836 89.4711 89.0964C86.3856 87.3955 75.7266 83.1104 68.1448 81.2051ZM68.7306 85.6727H67.9056C67.8561 85.5121 65.8761 78.2194 65.5296 76.5623C65.3398 75.6936 65.1996 74.8176 64.9933 73.9489C65.4632 73.9743 65.9343 73.9743 66.4041 73.9489C66.7506 77.1536 68.4748 84.9573 68.7306 85.6727ZM94.8748 82.8622C91.1128 84.0448 85.9648 82.7819 82.3183 81.3657C80.4538 80.6357 78.8204 79.5626 77.0301 78.7085C72.0801 76.3652 68.1366 73.9343 67.7323 73.7883C66.4123 73.3138 65.1666 74.5183 61.8171 72.4305C61.7346 72.3794 61.5614 72.2845 61.5861 72.1823C61.6109 72.0801 61.9161 72.102 62.0316 72.1166C62.5591 72.1903 63.0727 72.3279 63.5578 72.5254C63.6981 72.5765 63.8301 72.394 63.6816 72.3356C62.834 71.9707 62.0227 71.5434 61.2561 71.0581C61.1324 70.8902 61.2561 70.7369 61.4623 70.7515C61.5366 70.7515 63.3021 71.4815 63.7558 71.6421C63.8961 71.7005 64.0116 71.5253 63.8796 71.4596C62.9835 71.0982 62.1104 70.6937 61.2644 70.2478C60.9014 69.9339 61.0664 69.5981 61.3551 69.5981C61.4211 69.6419 63.0051 70.204 63.7228 70.4157C63.9291 70.4814 64.0116 70.1967 63.8136 70.131C63.2938 69.9631 61.8171 69.5032 61.6273 69.401C61.4376 69.2988 61.2973 69.0652 61.6273 68.9922C61.9573 68.9192 64.1024 69.1017 64.6799 69.1382C64.7064 69.1393 64.7328 69.1347 64.7569 69.1248C64.781 69.1149 64.8021 69.1 64.8183 69.0814C64.8345 69.0627 64.8454 69.0409 64.85 69.0178C64.8546 68.9946 64.8528 68.9708 64.8448 68.9484C64.6968 68.6893 64.6476 68.3948 64.7046 68.1089C64.8036 67.8461 64.9521 68.0213 65.0841 68.1819C65.3646 68.5104 66.6351 70.2624 67.7736 70.5252C72.1296 71.5399 76.7248 71.6421 80.8498 72.0655C81.8728 72.1677 84.8098 72.6203 85.2553 72.7298C85.5606 72.8101 86.5423 73.0802 86.5258 72.7955C86.4516 71.883 85.7503 68.2111 85.6431 67.2694C87.6231 67.1818 99.5856 65.5466 101.384 64.3494C102.448 67.9483 103.521 71.737 102.531 75.4527C102.066 77.1596 101.12 78.7345 99.7816 80.0302C98.4428 81.3259 96.7546 82.3003 94.8748 82.8622ZM69.5638 37.7482C69.1678 38.6315 67.9138 38.3541 67.5756 38.1789C67.5472 38.1634 67.5268 38.1386 67.5191 38.1098C67.5114 38.0811 67.5168 38.0508 67.5343 38.0256C67.5519 38.0004 67.5799 37.9824 67.6124 37.9756C67.6449 37.9688 67.6791 37.9736 67.7076 37.9891C67.9468 38.1059 68.9863 38.2738 69.3576 37.6314C69.4401 37.5438 69.5968 37.6752 69.5638 37.7482ZM68.7883 35.1932C68.7132 35.3819 68.588 35.5518 68.4232 35.6887C68.2584 35.8255 68.0588 35.9254 67.8413 35.9798C67.6238 36.0341 67.3947 36.0415 67.1733 36.0011C66.9519 35.9608 66.7447 35.874 66.5691 35.748C66.779 34.6819 66.7227 33.5881 66.4041 32.5433C66.4041 32.4119 66.1566 32.4703 66.1813 32.6017C66.3625 33.5908 66.4206 34.5944 66.3546 35.5947C65.8343 35.6673 65.3516 35.8789 64.9712 36.2012C64.5907 36.5235 64.3307 36.941 64.2261 37.3978C64.2261 37.3978 63.1289 36.4123 62.6174 33.9814C62.4029 32.9448 62.1636 31.9082 62.0646 30.857C64.6139 31.587 68.1613 30.6234 71.3623 28.2801C71.7635 28.8146 72.2967 29.2614 72.9216 29.5868C73.3413 29.4069 73.8244 29.3812 74.2654 29.5153C74.7064 29.6495 75.0695 29.9326 75.2755 30.3028C75.4814 30.673 75.5134 31.1003 75.3645 31.4914C75.2157 31.8824 74.898 32.2055 74.4808 32.39C74.6541 33.4704 74.5963 35.5509 73.1278 35.8721C71.9646 36.1276 71.1313 35.4706 68.7883 35.1932ZM72.0883 43.9532C74.0773 43.2548 75.7207 41.9533 76.7248 40.2813C76.8403 40.6536 78.1108 44.0116 78.2346 44.2014C78.0387 44.8805 77.6615 45.5081 77.1346 46.0314C76.6077 46.5548 75.9467 46.9586 75.2068 47.209C70.9003 48.9245 69.1761 46.5958 70.4136 45.1504C70.4218 45.1431 71.9068 44.946 72.1131 43.9897L72.0883 43.9532ZM70.0093 45.165C69.1843 46.0191 69.7618 47.6835 71.6593 48.0412C73.5568 48.3989 77.9541 47.0849 78.5564 44.1941C78.5564 44.1284 87.5489 44.8657 91.2531 47.1141C100.097 52.4139 102.803 61.7141 103.265 63.0938C97.9603 66.1525 84.9171 66.9336 83.4651 67.0139C82.6469 63.7078 82.4104 60.3098 82.7638 56.9399C82.7638 56.8523 82.6236 56.8596 82.6153 56.9399C82.1533 60.3649 82.343 63.8342 83.1763 67.2037C83.1865 67.234 83.207 67.2608 83.2351 67.2805C83.2632 67.3001 83.2974 67.3115 83.3331 67.3132C83.9931 67.3132 84.6613 67.3132 85.3213 67.2694C85.3791 68.1746 86.0639 71.7589 86.1463 72.6568C84.5018 72.2564 82.8248 71.9684 81.1303 71.7954C69.3823 70.6931 67.2043 70.6347 66.0246 68.963C66.1071 66.2401 66.9238 59.6701 70.8838 48.085C70.8899 48.0633 70.8906 48.0406 70.8857 48.0186C70.8808 47.9966 70.8705 47.9758 70.8556 47.9577C70.8406 47.9396 70.8214 47.9246 70.7992 47.9138C70.777 47.903 70.7524 47.8967 70.7271 47.8952C67.8231 48.0558 64.9164 48.1921 62.0069 48.304C62.3699 48.1799 66.5278 45.749 70.0341 45.2015L70.0093 45.165ZM70.5538 48.1799C66.1648 61.3199 65.8183 67.2913 65.8513 68.6783C65.7936 68.6053 65.3481 67.5614 64.7706 67.6271C65.0346 62.8821 66.0658 58.5678 68.5821 49.6472C68.5821 49.5596 68.5326 49.4428 68.4171 49.4574C57.3325 50.4095 46.169 50.3973 35.0871 49.4209C34.8997 49.1306 34.7316 48.8308 34.5838 48.523C34.6911 48.4646 34.7983 48.4135 34.9056 48.3478C39.4348 48.7201 52.7998 49.0559 70.5538 48.1799ZM34.6911 49.4209L33.1483 49.2311C33.3876 49.1289 34.1549 48.7712 34.3034 48.6982C34.4271 48.9099 34.5508 49.1873 34.6911 49.4209ZM29.2296 50.5378C27.5053 51.3919 25.6078 52.6767 25.1788 54.4871C25.0743 54.9116 25.0763 55.3513 25.1846 55.7751C25.2929 56.1989 25.505 56.5965 25.8058 56.9399C26.6308 57.8816 27.4558 57.3122 28.2808 57.8743C29.1058 58.4364 28.5778 59.1299 28.0498 59.5606C26.1846 60.6877 24.1259 61.5406 21.9531 62.0864C20.4516 62.4806 18.9501 62.685 17.5723 63.0865C18.7521 62.4003 20.2288 61.8893 20.5423 60.5826C20.6098 60.2276 20.5774 59.8634 20.4479 59.5222C20.3184 59.1809 20.0958 58.8732 19.7998 58.6262C19.1059 58.0548 18.251 57.6589 17.3248 57.4801C15.6171 57.0202 13.2988 56.5311 13.0926 54.6331C13.0666 53.8289 13.2974 53.0345 13.7585 52.3411C14.2196 51.6477 14.8924 51.0834 15.6996 50.713C18.8758 49.0924 23.5453 49.3698 25.5501 46.2235C25.9755 45.6054 26.1666 44.8831 26.0954 44.1622C26.0241 43.4412 25.6943 42.7592 25.1541 42.2158C22.8771 39.7192 18.0508 39.4783 17.2918 36.2225C17.0664 35.2655 17.277 34.2685 17.878 33.4483C18.479 32.628 19.4217 32.0509 20.5011 31.8425C20.3351 32.0939 20.2476 32.3799 20.2476 32.6711C20.2476 32.9622 20.3351 33.2482 20.5011 33.4996C21.0404 34.2554 21.7651 34.8941 22.6213 35.3684C27.4228 38.3249 34.6168 37.6095 37.5538 42.8144C38.4448 44.3912 38.1066 44.8 37.0836 46.2162C35.6976 48.2164 31.6963 49.3187 29.2296 50.5378ZM27.2248 72.1239C27.2061 72.1244 27.1877 72.1287 27.1711 72.1364C27.1545 72.1441 27.1401 72.155 27.129 72.1684C27.1178 72.1818 27.1103 72.1972 27.1069 72.2135C27.1035 72.2298 27.1043 72.2466 27.1093 72.2626C27.2743 72.7736 27.2496 73.3284 27.3981 73.8467C26.0871 74.7894 24.5419 75.4431 22.8896 75.7541C21.2373 76.065 19.5251 76.0243 17.8941 75.6352L14.9571 66.1452C17.8195 64.6013 21.1267 63.8253 24.4776 63.9114C24.6056 64.5599 24.8216 65.1922 25.1211 65.7948C26.1068 65.593 27.1382 65.6565 28.0828 65.9773C27.668 66.3074 27.302 66.6827 26.9938 67.0942C26.5483 67.0285 26.0368 66.7949 25.5831 66.9555C25.1293 67.1161 25.1623 67.5614 25.3521 67.9045C25.8956 68.9102 26.2496 69.9878 26.3998 71.0946C26.3998 71.2406 26.6803 71.2406 26.6638 71.0946C26.6678 71.0338 26.6678 70.9729 26.6638 70.9121C27.2311 70.9837 27.809 70.9464 28.3585 70.8028C28.908 70.6592 29.4161 70.4127 29.8483 70.0799C29.7289 70.6297 29.4064 71.1288 28.9315 71.4988C28.4567 71.8688 27.8563 72.0887 27.2248 72.1239ZM29.8153 69.7514C28.9161 70.9194 27.0433 70.7661 26.6638 70.7369C26.4676 69.7257 26.1151 68.7431 25.6161 67.8169C25.4841 67.6125 25.3686 67.3132 25.6738 67.1891C25.9791 67.065 26.4988 67.2767 26.8866 67.2621C26.7793 67.4373 26.6308 67.7001 26.7628 67.8826C27.0763 68.3133 28.2066 67.6709 28.6273 67.3132C28.6905 67.3119 28.753 67.3246 28.8091 67.3501C28.8653 67.3756 28.9134 67.4131 28.9491 67.4592C29.3533 67.9994 28.3386 68.4812 27.9261 68.6053C27.9064 68.6053 27.8875 68.6122 27.8736 68.6245C27.8597 68.6369 27.8518 68.6536 27.8518 68.671C27.8518 68.6884 27.8597 68.7051 27.8736 68.7175C27.8875 68.7298 27.9064 68.7367 27.9261 68.7367C28.1779 68.6967 28.4178 68.6112 28.6307 68.4856C28.8436 68.36 29.025 68.197 29.1636 68.0067C29.2442 68.0486 29.3144 68.1045 29.3699 68.171C29.4254 68.2376 29.4652 68.3133 29.4868 68.3938C29.5083 68.4743 29.5113 68.5578 29.4955 68.6393C29.4796 68.7208 29.4453 68.7986 29.3946 68.8681C29.2235 69.0549 29.0106 69.2084 28.7692 69.319C28.5279 69.4295 28.2633 69.4947 27.9921 69.5105C27.8766 69.5105 27.9261 69.6857 28.0416 69.6711C28.3499 69.6592 28.6514 69.5877 28.9251 69.4616C29.1988 69.3354 29.4379 69.1578 29.6256 68.9411C29.7033 68.9795 29.7703 69.0327 29.822 69.0968C29.8737 69.1609 29.9087 69.2343 29.9244 69.3118C29.9402 69.3892 29.9364 69.4689 29.9133 69.5449C29.8901 69.6209 29.8482 69.6914 29.7906 69.7514H29.8153ZM30.1618 69.5908C30.1618 69.5908 30.3351 68.963 29.7659 68.7732C29.834 68.5745 29.8133 68.3602 29.7081 68.1746C29.6073 68.0247 29.4578 67.9052 29.2791 67.8315C29.2979 67.734 29.2914 67.6341 29.2599 67.5392C29.2285 67.4443 29.1729 67.357 29.0976 67.284C28.8336 67.0285 28.7593 67.2329 28.9326 67.0066C29.0233 66.8971 28.8253 66.7657 28.7263 66.8606C28.4076 67.1274 28.0655 67.3715 27.7034 67.5906C27.5796 67.6563 26.9938 67.9337 26.9938 67.6855C27.1997 67.2296 27.4865 66.8057 27.8436 66.4299C28.0522 66.2366 28.3275 66.1102 28.6262 66.0705C28.925 66.0309 29.2301 66.0802 29.4936 66.2109C29.9629 66.3562 30.4566 66.4302 30.9538 66.4299C32.0676 66.4299 37.5126 65.6999 38.1066 65.605C38.6566 67.4592 39.1681 69.3207 39.6411 71.1895C36.5145 70.4794 33.3401 69.9454 30.1371 69.5908H30.1618ZM32.9173 49.4136C37.3641 50.0268 49.9041 51.4138 68.2273 49.8005C64.6798 61.1812 64.4736 67.795 64.4819 67.8169C64.3892 67.9706 64.3353 68.1403 64.3239 68.3142C64.3125 68.4881 64.3439 68.6622 64.4159 68.8243C63.7641 68.7805 61.3964 68.4009 61.1159 68.9411C61.067 69.0217 61.0463 69.1134 61.0566 69.2044C61.0669 69.2954 61.1076 69.3817 61.1736 69.4521C60.7116 69.5324 60.8188 70.0215 60.9838 70.2405C61.0761 70.3574 61.1939 70.4567 61.3303 70.5325C61.245 70.5312 61.1616 70.5548 61.093 70.5996C61.0244 70.6445 60.9744 70.7082 60.9508 70.7807C60.7776 71.2406 61.6026 71.6056 62.2296 71.9268C62.2296 71.9268 61.4046 71.8027 61.3386 72.102C61.2726 72.4013 61.6273 72.5911 61.8419 72.7225C62.7432 73.2544 63.7386 73.6491 64.7871 73.8905C65.4584 77.8556 66.4146 81.7788 67.6498 85.6362C63.9373 85.5048 44.0714 85.2785 42.5946 83.5338C42.2646 81.5482 40.5486 69.3864 32.8926 49.4136H32.9173ZM42.0749 102.368C42.8999 102.302 43.7248 102.251 44.4921 102.2C44.4921 102.346 44.6571 116.128 44.6736 117.632C34.3694 117.559 35.6976 117.632 33.8083 117.632C33.7588 113.311 33.7176 109.376 33.7011 108.471C36.6846 106.652 39.4862 104.61 42.0749 102.368ZM39.1708 83.7382C38.4861 84.2857 32.8348 91.1623 31.2921 93.4107C29.2543 85.1033 22.4151 84.7091 22.2171 84.6507C27.1423 84.5047 38.4366 83.782 39.1461 83.7382H39.1708ZM18.6696 103.215C17.5806 100.974 15.6748 98.5499 14.4373 95.8708C13.1751 93.0384 12.7873 89.3008 15.2623 86.8772C17.3991 84.7675 21.4993 84.1689 25.0468 86.0742C28.2148 87.7751 29.9968 90.7681 30.9786 93.8487C30.7063 94.2502 22.0191 105.616 21.3013 106.536C21.3013 106.573 22.8028 107.887 23.2153 108.23C22.8276 108.733 21.2023 110.785 20.7403 111.303C20.3775 111.13 19.9995 110.984 19.6101 110.865C19.6101 110.865 19.7256 105.368 18.6696 103.215ZM20.8806 111.442C21.3261 110.923 23.0173 108.901 23.3968 108.398C24.4281 109.259 25.4511 110.12 26.4576 111.004C25.6882 111.601 24.9863 112.264 24.3621 112.982C23.4958 114.187 24.0981 115.69 22.2336 116.844C22.1016 116.742 21.0538 115.88 20.7403 115.581C20.6555 115.5 20.5988 115.399 20.5769 115.29C20.5549 115.182 20.5687 115.07 20.6166 114.968C20.7981 114.61 21.6891 112.851 20.8806 111.442ZM21.2023 133.794C20.7788 133.687 20.406 133.461 20.1397 133.151C19.8735 132.84 19.7282 132.461 19.7256 132.072C19.6513 130.655 20.4186 130.531 19.9566 117.296C20.6496 117.734 21.3343 118.129 21.9943 118.479C22.1051 118.543 22.2361 118.574 22.3683 118.568C22.5004 118.561 22.6267 118.517 22.7286 118.442C22.857 118.344 22.9756 118.237 23.0833 118.121C23.1331 118.06 23.1683 117.99 23.1869 117.917C23.2055 117.843 23.2072 117.767 23.1918 117.692C23.1764 117.618 23.1443 117.547 23.0973 117.484C23.0503 117.421 22.9894 117.367 22.9183 117.326L22.3821 116.953C24.2383 115.895 23.7598 114.34 24.5188 113.216C25.1416 112.467 25.8616 111.786 26.6638 111.186L27.5878 112.018C27.5878 112.018 30.1206 110.631 33.3628 108.631C33.4206 110.989 33.7093 132.721 33.8248 133.758C31.6221 133.794 22.0191 134.006 21.2023 133.794ZM33.7836 117.734C38.2799 117.807 39.4431 117.837 44.6488 117.873C44.6983 121.946 44.7561 124.764 45.0448 128.166C45.0448 128.166 37.6198 128.363 33.9156 128.553C33.8743 126.005 33.8248 121.713 33.8248 117.734H33.7836ZM34.0311 133.758C34.0311 132.853 33.9403 129.524 33.9238 128.772C37.6363 128.616 41.3516 128.499 45.0696 128.422C45.0696 128.816 45.4739 132.254 45.5728 133.575L34.0311 133.758ZM52.7091 140.722C51.8324 140.762 50.954 140.762 50.0774 140.722C49.9575 140.709 49.8445 140.666 49.7521 140.597C49.6598 140.529 49.5922 140.437 49.5576 140.335C49.2389 139.39 48.6238 138.545 47.7838 137.897C47.8416 137.101 47.8746 135.138 47.8746 134.977C49.1011 135.006 50.3304 135.057 51.5624 135.13C51.5135 135.971 51.5772 136.814 51.7521 137.641C52.1233 138.569 53.3691 139.634 52.7091 140.722ZM52.5276 94.1699C49.1039 94.1699 45.1768 97.2797 44.5003 101.901L42.3636 102.047C43.1826 101.299 43.9279 100.49 44.5911 99.6303C45.7131 96.0606 49.5824 93.5421 52.8411 93.491C54.5403 93.538 56.1584 94.1445 57.3786 95.1919C58.4917 96.1448 59.3757 97.2871 59.9773 98.5499C62.1636 99.6157 66.2391 100.543 70.7683 101.251C69.2998 101.251 62.2379 101.309 60.1918 101.346C59.4493 97.1629 55.8028 94.2283 52.5276 94.1699ZM69.1596 132.334C64.5891 132.948 54.8046 133.371 54.5241 133.378C54.9448 131.699 55.3491 129.991 55.7698 128.268C60.4943 128.239 65.2188 128.222 69.9433 128.217C69.6793 129.604 69.4236 130.984 69.1596 132.364V132.334ZM55.8358 127.954C56.5784 124.75 57.9561 117.968 57.9644 117.924L84.2653 118.165C84.4386 121.384 84.7851 124.604 85.1893 127.808C80.2063 127.925 58.9296 127.984 55.8358 128.013V127.954ZM86.4103 133.794C85.6678 128.093 85.0161 122.976 84.7603 117.223C84.3231 107.602 85.3461 104.339 85.4203 101.769C85.5771 95.8635 88.7203 87.2568 95.0976 85.7968C96.1984 85.4951 97.3609 85.4126 98.502 85.5552C99.6431 85.6978 100.734 86.062 101.698 86.6217C102.404 87.1557 103.018 87.7778 103.521 88.4686C104.589 89.9095 105.283 91.5417 105.554 93.248C105.825 94.9544 105.666 96.6927 105.088 98.3382C104.016 101.419 101.269 104.77 99.7588 108.252C96.8878 114.902 97.1684 130.203 98.5378 135.262C94.435 135.401 90.335 134.927 86.4103 133.86V133.794ZM98.8761 135.218C97.8696 131.495 97.9026 126.823 97.9438 122.932C97.8882 118.668 98.3949 114.412 99.4536 110.252C101.046 104.616 106.004 100.718 106.054 94.9656C106.097 92.3617 105.159 89.8191 103.389 87.7386C102.542 86.6356 101.278 85.8358 99.8248 85.4829H125.218C125.161 88.7314 124.699 130.086 124.699 130.093L118.618 133.648C111.936 133.729 105.526 135.05 98.8761 135.284V135.218ZM135.349 87.0889C137.734 89.7534 138.691 93.8852 136.513 98.966C134.689 103.251 126.687 113.113 130.325 131.685C130.267 131.685 128.246 130.517 127.273 130.035C127.273 130.035 128.098 89.3227 128.18 85.5048C133.493 85.2201 134.896 86.6509 135.349 87.1546V87.0889ZM132.874 61.6484C133.858 63.2294 134.324 65.0218 134.219 66.8241C134.326 72.8977 133.105 79.2341 131.554 85.1544C130.894 85.0887 128.634 85.0595 128.172 85.0814C128.172 83.4316 128.51 60.5607 128.527 59.3708C129.417 59.4036 130.284 59.6358 131.046 60.0456C131.808 60.4554 132.44 61.0295 132.883 61.7141L132.874 61.6484ZM126.852 130.035C126.811 130.363 139.631 136.736 140.052 136.897C139.095 138.24 134.277 139.342 132.404 139.503C131.249 139.605 120.722 139.503 118.437 139.32C116.037 139.147 113.693 138.593 111.515 137.685C112.398 137.291 124.996 130.32 125.004 130.035C125.144 124.655 126.118 46.5155 126.151 43.2524H128.403C128.353 49.7275 126.951 129.444 126.86 130.101L126.852 130.035ZM124.072 43.0699C124.261 38.011 125.928 4.0806 125.895 4.066L129.319 4.0076C129.69 6.5042 135.094 42.902 135.094 42.9239C134.607 42.9458 125.763 43.0699 124.072 43.0699ZM135.399 42.9093C135.399 42.9093 130.102 6.84 129.525 4.0149L133.122 3.9565C133.831 6.4823 144.152 39.69 144.994 42.5078C145.002 42.5078 138.6 42.829 135.399 42.9239V42.9093ZM145.348 42.4859C145.348 42.4859 133.798 5.3143 133.336 3.9346L136.174 3.8908C138.138 9.0519 150.884 39.5075 152.014 42.0917C149.798 42.2572 147.576 42.3934 145.348 42.5005V42.4859Z" fill="white"/>
</svg>
