<svg width="180" height="21" viewBox="0 0 180 21" fill="none" xmlns="http://www.w3.org/2000/svg">
<path fill-rule="evenodd" clip-rule="evenodd" d="M15.2809 19.9681C15.8926 20.3207 16.0482 19.3589 15.986 18.9849L14.6485 12.9148L19.2726 9.89045C19.8221 9.5271 20.4235 8.60804 19.5837 8.45843C18.1139 8.1924 16.6343 7.97236 15.155 7.75237C14.4951 7.65422 13.8352 7.55608 13.1762 7.45387C12.5333 5.02236 11.7438 2.63457 10.8123 0.304438C10.7717 0.213556 10.7066 0.136581 10.6249 0.0826263C10.5431 0.0286714 10.448 0 10.351 0C10.2539 0 10.1588 0.0286714 10.077 0.0826263C9.99528 0.136581 9.93022 0.213556 9.88958 0.304438C9.2675 1.84333 8.2307 5.29515 7.7434 7.00503C7.34852 7.0271 6.82647 7.05142 6.23949 7.07876C4.26812 7.17059 1.56434 7.29653 0.485803 7.48593C0.174763 7.5928 -0.188118 8.234 0.112554 8.55461L4.55006 12.7011C4.09387 14.7743 3.66878 16.8796 3.27479 18.9742C3.20222 19.3696 3.66878 19.8078 4.04203 19.5726C5.62177 18.6008 7.18173 17.5881 8.73767 16.578C9.13218 16.3219 9.52643 16.066 9.92068 15.8109C11.6078 17.2146 13.3845 18.5465 15.1728 19.887L15.2809 19.9681ZM1.21156 8.45843C2.68025 9.62684 4.06617 10.9018 5.35876 12.2736C5.66064 13.2827 4.99947 15.5956 4.53727 17.2124C4.41212 17.6502 4.30156 18.0369 4.22865 18.333C4.31398 18.2748 4.45717 18.1742 4.6439 18.0429C6.00006 17.0899 9.6529 14.5229 10.1177 14.8705L14.9077 18.4719C14.8808 18.3276 14.8175 18.0375 14.7347 17.6586C14.3699 15.9884 13.6281 12.5923 13.9746 12.3484L18.4328 9.23856L13.2488 8.36225C12.6755 8.27931 12.4778 8.27683 12.3896 8.17431C12.296 8.06547 12.3257 7.84388 12.1602 7.29357C11.9274 6.51971 11.4011 4.84364 10.9355 3.36099C10.7582 2.79615 10.5896 2.25939 10.4495 1.81127C10.3984 1.95986 10.3084 2.25245 10.1912 2.63374C9.64235 4.4189 8.49571 8.14851 7.94039 8.14851L1.21156 8.45843Z" fill="white" fill-opacity="0.5"/>
<path fill-rule="evenodd" clip-rule="evenodd" d="M55.2809 19.9681C55.8926 20.3207 56.0482 19.3589 55.986 18.9849L54.6485 12.9148L59.2726 9.89045C59.8221 9.5271 60.4235 8.60804 59.5837 8.45843C58.1139 8.1924 56.6343 7.97236 55.155 7.75237C54.4951 7.65422 53.8352 7.55608 53.1762 7.45387C52.5333 5.02236 51.7438 2.63457 50.8123 0.304438C50.7717 0.213556 50.7066 0.136581 50.6249 0.0826263C50.5431 0.0286714 50.448 0 50.351 0C50.2539 0 50.1588 0.0286714 50.077 0.0826263C49.9953 0.136581 49.9302 0.213556 49.8896 0.304438C49.2675 1.84333 48.2307 5.29515 47.7434 7.00503C47.3485 7.0271 46.8265 7.05142 46.2395 7.07876C44.2681 7.17059 41.5643 7.29653 40.4858 7.48593C40.1748 7.5928 39.8119 8.234 40.1126 8.55461L44.5501 12.7011C44.0939 14.7743 43.6688 16.8796 43.2748 18.9742C43.2022 19.3696 43.6688 19.8078 44.042 19.5726C45.6218 18.6008 47.1817 17.5881 48.7377 16.578C49.1322 16.3219 49.5264 16.066 49.9207 15.8109C51.6078 17.2146 53.3845 18.5465 55.1728 19.887L55.2809 19.9681ZM41.2116 8.45843C42.6803 9.62684 44.0662 10.9018 45.3588 12.2736C45.6606 13.2827 44.9995 15.5956 44.5373 17.2124C44.4121 17.6502 44.3016 18.0369 44.2287 18.333C44.314 18.2748 44.4572 18.1742 44.6439 18.0429C46.0001 17.0899 49.6529 14.5229 50.1177 14.8705L54.9077 18.4719C54.8808 18.3276 54.8175 18.0375 54.7347 17.6586C54.3699 15.9884 53.6281 12.5923 53.9746 12.3484L58.4328 9.23856L53.2488 8.36225C52.6755 8.27931 52.4778 8.27683 52.3896 8.17431C52.296 8.06547 52.3257 7.84388 52.1602 7.29357C51.9274 6.51971 51.4011 4.84364 50.9355 3.36099C50.7582 2.79615 50.5896 2.25939 50.4495 1.81127C50.3984 1.95986 50.3084 2.25245 50.1912 2.63374C49.6423 4.4189 48.4957 8.14851 47.9404 8.14851L41.2116 8.45843Z" fill="white" fill-opacity="0.6"/>
<path fill-rule="evenodd" clip-rule="evenodd" d="M95.2809 19.9681C95.8926 20.3207 96.0482 19.3589 95.986 18.9849L94.6485 12.9148L99.2726 9.89045C99.8221 9.5271 100.423 8.60804 99.5837 8.45843C98.1139 8.1924 96.6343 7.97236 95.155 7.75237C94.4951 7.65422 93.8352 7.55608 93.1762 7.45387C92.5333 5.02236 91.7438 2.63457 90.8123 0.304438C90.7717 0.213556 90.7066 0.136581 90.6249 0.0826263C90.5431 0.0286714 90.448 0 90.351 0C90.2539 0 90.1588 0.0286714 90.077 0.0826263C89.9953 0.136581 89.9302 0.213556 89.8896 0.304438C89.2675 1.84333 88.2307 5.29515 87.7434 7.00503C87.3485 7.0271 86.8265 7.05142 86.2395 7.07876C84.2681 7.17059 81.5643 7.29653 80.4858 7.48593C80.1748 7.5928 79.8119 8.234 80.1126 8.55461L84.5501 12.7011C84.0939 14.7743 83.6688 16.8796 83.2748 18.9742C83.2022 19.3696 83.6688 19.8078 84.042 19.5726C85.6218 18.6008 87.1817 17.5881 88.7377 16.578C89.1322 16.3219 89.5264 16.066 89.9207 15.8109C91.6078 17.2146 93.3845 18.5465 95.1728 19.887L95.2809 19.9681ZM81.2116 8.45843C82.6803 9.62684 84.0662 10.9018 85.3588 12.2736C85.6606 13.2827 84.9995 15.5956 84.5373 17.2124C84.4121 17.6502 84.3016 18.0369 84.2287 18.333C84.314 18.2748 84.4572 18.1742 84.6439 18.0429C86.0001 17.0899 89.6529 14.5229 90.1177 14.8705L94.9077 18.4719C94.8808 18.3276 94.8175 18.0375 94.7347 17.6586C94.3699 15.9884 93.6281 12.5923 93.9746 12.3484L98.4328 9.23856L93.2488 8.36225C92.6755 8.27931 92.4778 8.27683 92.3896 8.17431C92.296 8.06547 92.3257 7.84388 92.1602 7.29357C91.9274 6.51971 91.4011 4.84364 90.9355 3.36099C90.7582 2.79615 90.5896 2.25939 90.4495 1.81127C90.3984 1.95986 90.3084 2.25245 90.1912 2.63374C89.6423 4.4189 88.4957 8.14851 87.9404 8.14851L81.2116 8.45843Z" fill="white" fill-opacity="0.7"/>
<path fill-rule="evenodd" clip-rule="evenodd" d="M135.281 19.9681C135.893 20.3207 136.048 19.3589 135.986 18.9849L134.648 12.9148L139.273 9.89045C139.822 9.5271 140.423 8.60804 139.584 8.45843C138.114 8.1924 136.634 7.97236 135.155 7.75237C134.495 7.65422 133.835 7.55608 133.176 7.45387C132.533 5.02236 131.744 2.63457 130.812 0.304438C130.772 0.213556 130.707 0.136581 130.625 0.0826263C130.543 0.0286714 130.448 0 130.351 0C130.254 0 130.159 0.0286714 130.077 0.0826263C129.995 0.136581 129.93 0.213556 129.89 0.304438C129.267 1.84333 128.231 5.29515 127.743 7.00503C127.349 7.0271 126.826 7.05142 126.239 7.07876C124.268 7.17059 121.564 7.29653 120.486 7.48593C120.175 7.5928 119.812 8.234 120.113 8.55461L124.55 12.7011C124.094 14.7743 123.669 16.8796 123.275 18.9742C123.202 19.3696 123.669 19.8078 124.042 19.5726C125.622 18.6008 127.182 17.5881 128.738 16.578C129.132 16.3219 129.526 16.066 129.921 15.8109C131.608 17.2146 133.385 18.5465 135.173 19.887L135.281 19.9681ZM121.212 8.45843C122.68 9.62684 124.066 10.9018 125.359 12.2736C125.661 13.2827 124.999 15.5956 124.537 17.2124C124.412 17.6502 124.302 18.0369 124.229 18.333C124.314 18.2748 124.457 18.1742 124.644 18.0429C126 17.0899 129.653 14.5229 130.118 14.8705L134.908 18.4719C134.881 18.3276 134.817 18.0375 134.735 17.6586C134.37 15.9884 133.628 12.5923 133.975 12.3484L138.433 9.23856L133.249 8.36225C132.675 8.27931 132.478 8.27683 132.39 8.17431C132.296 8.06547 132.326 7.84388 132.16 7.29357C131.927 6.51971 131.401 4.84364 130.936 3.36099C130.758 2.79615 130.59 2.25939 130.449 1.81127C130.398 1.95986 130.308 2.25245 130.191 2.63374C129.642 4.4189 128.496 8.14851 127.94 8.14851L121.212 8.45843Z" fill="white" fill-opacity="0.8"/>
<path fill-rule="evenodd" clip-rule="evenodd" d="M175.281 19.9681C175.893 20.3207 176.048 19.3589 175.986 18.9849L174.648 12.9148L179.273 9.89045C179.822 9.5271 180.423 8.60804 179.584 8.45843C178.114 8.1924 176.634 7.97236 175.155 7.75237C174.495 7.65422 173.835 7.55608 173.176 7.45387C172.533 5.02236 171.744 2.63457 170.812 0.304438C170.772 0.213556 170.707 0.136581 170.625 0.0826263C170.543 0.0286714 170.448 0 170.351 0C170.254 0 170.159 0.0286714 170.077 0.0826263C169.995 0.136581 169.93 0.213556 169.89 0.304438C169.267 1.84333 168.231 5.29515 167.743 7.00503C167.349 7.0271 166.826 7.05142 166.239 7.07876C164.268 7.17059 161.564 7.29653 160.486 7.48593C160.175 7.5928 159.812 8.234 160.113 8.55461L164.55 12.7011C164.094 14.7743 163.669 16.8796 163.275 18.9742C163.202 19.3696 163.669 19.8078 164.042 19.5726C165.622 18.6008 167.182 17.5881 168.738 16.578C169.132 16.3219 169.526 16.066 169.921 15.8109C171.608 17.2146 173.385 18.5465 175.173 19.887L175.281 19.9681ZM161.212 8.45843C162.68 9.62684 164.066 10.9018 165.359 12.2736C165.661 13.2827 164.999 15.5956 164.537 17.2124C164.412 17.6502 164.302 18.0369 164.229 18.333C164.314 18.2748 164.457 18.1742 164.644 18.0429C166 17.0899 169.653 14.5229 170.118 14.8705L174.908 18.4719C174.881 18.3276 174.817 18.0375 174.735 17.6586C174.37 15.9884 173.628 12.5923 173.975 12.3484L178.433 9.23856L173.249 8.36225C172.675 8.27931 172.478 8.27683 172.39 8.17431C172.296 8.06547 172.326 7.84388 172.16 7.29357C171.927 6.51971 171.401 4.84364 170.936 3.36099C170.758 2.79615 170.59 2.25939 170.449 1.81127C170.398 1.95986 170.308 2.25245 170.191 2.63374C169.642 4.4189 168.496 8.14851 167.94 8.14851L161.212 8.45843Z" fill="white" fill-opacity="0.9"/>
</svg>
