<svg width="24" height="24" viewBox="0 0 26 26" fill="none" xmlns="http://www.w3.org/2000/svg">
<path opacity="0.4" d="M19 14.68V18.28C19 23.08 17.08 25 12.28 25H7.72C2.92 25 1 23.08 1 18.28V13.72C1 8.92 2.92 7 7.72 7H11.32" stroke="white" stroke-width="1.5" stroke-linecap="round" stroke-linejoin="round"/>
<path d="M19 14.68H15.16C12.28 14.68 11.32 13.72 11.32 10.84V7L19 14.68Z" stroke="white" stroke-width="1.5" stroke-linecap="round" stroke-linejoin="round"/>
<path opacity="0.4" d="M7 4.6C7 2.608 8.608 1 10.6 1H17.8" stroke="white" stroke-width="1.5" stroke-linecap="round" stroke-linejoin="round"/>
<path opacity="0.4" d="M25 8.19995V15.628C25 17.488 23.488 19 21.628 19" stroke="white" stroke-width="1.5" stroke-linecap="round" stroke-linejoin="round"/>
<path d="M25 8.2H21.4C18.7 8.2 17.8 7.3 17.8 4.6V1L25 8.2Z" stroke="white" stroke-width="1.5" stroke-linecap="round" stroke-linejoin="round"/>
</svg>
