<svg width="25" height="25" viewBox="0 0 25 25" fill="none" xmlns="http://www.w3.org/2000/svg">
  <path opacity="0.4" d="M8.50033 6.92725H16.4899C17.1566 6.92725 17.6982 7.46891 17.6982 8.13558V9.46891C17.6982 9.9585 17.3962 10.5627 17.0941 10.8647L14.4899 13.1668C14.1253 13.4689 13.8857 14.0731 13.8857 14.5627V17.1668C13.8857 17.5314 13.6462 18.0106 13.3441 18.1981L12.5003 18.7293C11.7087 19.2189 10.6253 18.6668 10.6253 17.6981V14.4897C10.6253 14.0627 10.3857 13.521 10.1357 13.2189L7.83366 10.7918C7.53158 10.5002 7.29199 9.94808 7.29199 9.5835V8.19808C7.29199 7.46891 7.83366 6.92725 8.50033 6.92725Z" stroke="#1C2846" stroke-width="1.5" stroke-miterlimit="10" stroke-linecap="round" stroke-linejoin="round" />
  <path d="M9.37468 22.9168H15.6247C20.833 22.9168 22.9163 20.8335 22.9163 15.6252V9.37516C22.9163 4.16683 20.833 2.0835 15.6247 2.0835H9.37468C4.16634 2.0835 2.08301 4.16683 2.08301 9.37516V15.6252C2.08301 20.8335 4.16634 22.9168 9.37468 22.9168Z" stroke="#1C2846" stroke-width="1.5" stroke-linecap="round" stroke-linejoin="round" />
</svg>